<svg clip-rule="evenodd" fill-rule="evenodd" stroke-linejoin="round" stroke-miterlimit="2" viewBox="0 0 24 24" xmlns="http://www.w3.org/2000/svg"><g id="Icon"><circle cx="8" cy="6.5" r="3.75"></circle><circle cx="16" cy="5" r="3.75"></circle><path d="m12 12.25c-2.898 0-5.25 2.352-5.25 5.25s2.352 5.25 5.25 5.25 5.25-2.352 5.25-5.25-2.352-5.25-5.25-5.25zm.75 4.5v-1c0-.414-.336-.75-.75-.75s-.75.336-.75.75v1h-1c-.414 0-.75.336-.75.75s.336.75.75.75h1v1c0 .414.336.75.75.75s.75-.336.75-.75v-1h1c.414 0 .75-.336.75-.75s-.336-.75-.75-.75z"></path><path d="m5.874 16.258c.573-2.841 3.076-4.986 6.08-5.008-1.1-.429-2.468-.692-3.954-.692-2.163 0-4.075.548-5.264 1.359-.969.66-1.486 1.51-1.486 2.391v.6c0 .358.142.701.395.954.254.254.597.396.955.396z"></path><path d="m11.435 10.022c.309.088.603.188.883.297.412.16.665.57.634 1.003 2.055.315 3.782 1.632 4.665 3.436h3.783c.358 0 .701-.142.955-.396.253-.253.395-.596.395-.954v-.6c0-.881-.517-1.731-1.486-2.391-1.189-.811-3.101-1.359-5.264-1.359-1.775 0-3.38.376-4.565.964z"></path></g></svg>