<!DOCTYPE svg PUBLIC "-//W3C//DTD SVG 1.1//EN" "http://www.w3.org/Graphics/SVG/1.1/DTD/svg11.dtd">
<!-- Uploaded to: SVG Repo, www.svgrepo.com, Transformed by: SVG Repo Mixer Tools -->
<svg fill="#ffffff" width="256px" height="256px" viewBox="0 0 32.00 32.00" xmlns="http://www.w3.org/2000/svg" stroke="#ffffff" stroke-width="0.064" transform="matrix(1, 0, 0, 1, 0, 0)rotate(90)">
<g id="SVGRepo_bgCarrier" stroke-width="0"/>
<g id="SVGRepo_tracerCarrier" stroke-linecap="round" stroke-linejoin="round" stroke="#CCCCCC" stroke-width="1.088"/>
<g id="SVGRepo_iconCarrier"> <title/> <g data-name="Layer 40" id="Layer_40"> <path d="M29.57,15.18l-13-9a1,1,0,0,0-1.14,1.64L27.24,16,15.43,24.18a1,1,0,0,0-.25,1.39,1,1,0,0,0,1.39.25l13-9a1,1,0,0,0,0-1.64Z"/> <path d="M24,16a1,1,0,0,0-.43-.82l-13-9A1,1,0,0,0,9.43,7.82L21.24,16,9.43,24.18a1,1,0,0,0-.25,1.39,1,1,0,0,0,1.39.25l13-9A1,1,0,0,0,24,16Z"/> <path d="M18,16a1,1,0,0,0-.43-.82l-13-9A1,1,0,0,0,3.43,7.82L15.24,16,3.43,24.18a1,1,0,0,0-.25,1.39,1,1,0,0,0,1.39.25l13-9A1,1,0,0,0,18,16Z"/> </g> </g>
</svg>